
# SPDX-License-Identifier: CC-BY-SA-4.0
# Author: Michael Pascale
# Modified: 2025-07-28 18:45 EDT

o RadialMaze8Arm_v1

g RadialMaze8Arm_v1
v -0.0868241 -0.5 2
v -0.08682401 -0.5 1.210719E-08
v -0.0868241 0.5 2
v -0.08682401 0.5 1.210719E-08
v 0.08682416 -0.5 3.72529E-08
v 0.0868241 -0.5 2
v 0.08682416 0.5 3.72529E-08
v 0.0868241 0.5 2
v 0.0868241 -0.5 2.5
v -0.0868241 -0.5 2.5
v 0.0868241 0.5 2.5
v -0.0868241 0.5 2.5
v -0.2604723 -0.5 2.5
v -0.2604723 0.5 2.5
v -0.2604723 -0.5 2
v -0.2604723 0.5 2
v -0.4698459 -0.5 -0.6634141
v -0.4698459 -0.3333333 -0.6634141
v -0.4999997 -0.5 -0.492404
v -0.4999997 -0.3333333 -0.4924041
v -0.469846 -0.5 -0.3213939
v -0.4698461 -0.3333333 -0.3213939
v -0.383022 -0.5 -0.1710102
v -0.383022 -0.3333333 -0.1710102
v -0.2499998 -0.5 -0.05939125
v -0.2499998 -0.3333333 -0.05939125
v -0.08682392 -0.3333333 2.421439E-08
v 0.08682422 -0.3333333 7.450581E-08
v 0.2500002 -0.5 -0.05939106
v 0.2500002 -0.3333333 -0.05939106
v 0.3830225 -0.5 -0.17101
v 0.3830225 -0.3333333 -0.17101
v 0.4698466 -0.5 -0.3213936
v 0.4698466 -0.3333333 -0.3213937
v 0.5000004 -0.5 -0.4924037
v 0.5000004 -0.3333333 -0.4924037
v 0.4698467 -0.5 -0.6634138
v 0.4698467 -0.3333333 -0.6634139
v 0.3830226 -0.5 -0.8137975
v 0.3830226 -0.3333333 -0.8137976
v 0.2500005 -0.5 -0.9254165
v 0.2500005 -0.3333333 -0.9254165
v 0.08682463 -0.5 -0.9848077
v 0.08682466 -0.3333333 -0.9848077
v -0.08682355 -0.5 -0.9848078
v -0.08682349 -0.3333333 -0.9848077
v -0.2499995 -0.5 -0.9254167
v -0.2499994 -0.3333333 -0.9254168
v -0.3830218 -0.5 -0.8137978
v -0.3830218 -0.3333333 -0.8137978
v -0.4698459 -0.1666667 -0.6634141
v -0.4999997 -0.1666667 -0.4924041
v -0.4698461 -0.1666667 -0.3213939
v -0.383022 -0.1666667 -0.1710102
v -0.2499998 -0.1666667 -0.05939125
v -0.08682392 -0.1666667 2.421439E-08
v 0.08682422 -0.1666667 7.450581E-08
v 0.2500002 -0.1666667 -0.05939106
v 0.3830225 -0.1666667 -0.17101
v 0.4698466 -0.1666667 -0.3213937
v 0.5000004 -0.1666667 -0.4924037
v 0.4698467 -0.1666667 -0.6634139
v 0.3830226 -0.1666667 -0.8137976
v 0.2500005 -0.1666667 -0.9254165
v 0.08682466 -0.1666667 -0.9848077
v -0.08682349 -0.1666667 -0.9848077
v -0.2499994 -0.1666667 -0.9254168
v -0.3830218 -0.1666667 -0.8137978
v -0.4698459 0 -0.6634141
v -0.4999997 0 -0.4924041
v -0.4698461 0 -0.3213939
v -0.383022 0 -0.1710102
v -0.2499998 0 -0.05939125
v -0.08682392 0 2.421439E-08
v 0.08682422 0 7.450581E-08
v 0.2500002 0 -0.05939106
v 0.3830225 0 -0.17101
v 0.4698466 0 -0.3213937
v 0.5000004 0 -0.4924037
v 0.4698467 0 -0.6634139
v 0.3830226 0 -0.8137976
v 0.2500005 0 -0.9254165
v 0.08682466 0 -0.9848077
v -0.08682349 0 -0.9848077
v -0.2499994 0 -0.9254168
v -0.3830218 0 -0.8137978
v -0.4698459 0.1666667 -0.6634141
v -0.4999997 0.1666667 -0.4924041
v -0.4698461 0.1666667 -0.3213939
v -0.383022 0.1666667 -0.1710102
v -0.2499998 0.1666667 -0.05939125
v -0.08682392 0.1666667 2.421439E-08
v 0.08682422 0.1666667 7.450581E-08
v 0.2500002 0.1666667 -0.05939106
v 0.3830225 0.1666667 -0.17101
v 0.4698466 0.1666667 -0.3213937
v 0.5000004 0.1666667 -0.4924037
v 0.4698467 0.1666667 -0.6634139
v 0.3830226 0.1666667 -0.8137976
v 0.2500005 0.1666667 -0.9254165
v 0.08682466 0.1666667 -0.9848077
v -0.08682349 0.1666667 -0.9848077
v -0.2499994 0.1666667 -0.9254168
v -0.3830218 0.1666667 -0.8137978
v -0.4698459 0.3333334 -0.6634141
v -0.4999997 0.3333334 -0.4924041
v -0.4698461 0.3333334 -0.3213939
v -0.383022 0.3333334 -0.1710102
v -0.2499998 0.3333334 -0.05939125
v -0.08682392 0.3333334 2.421439E-08
v 0.08682422 0.3333334 7.450581E-08
v 0.2500002 0.3333334 -0.05939106
v 0.3830225 0.3333334 -0.17101
v 0.4698466 0.3333334 -0.3213937
v 0.5000004 0.3333334 -0.4924037
v 0.4698467 0.3333334 -0.6634139
v 0.3830226 0.3333334 -0.8137976
v 0.2500005 0.3333334 -0.9254165
v 0.08682466 0.3333334 -0.9848077
v -0.08682349 0.3333334 -0.9848077
v -0.2499994 0.3333334 -0.9254168
v -0.3830218 0.3333334 -0.8137978
v -0.4698459 0.5 -0.6634141
v -0.4999997 0.5 -0.492404
v -0.469846 0.5 -0.3213939
v -0.383022 0.5 -0.1710102
v -0.2499998 0.5 -0.05939125
v 0.2500002 0.5 -0.05939106
v 0.3830225 0.5 -0.17101
v 0.4698466 0.5 -0.3213936
v 0.5000004 0.5 -0.4924037
v 0.4698467 0.5 -0.6634138
v 0.3830226 0.5 -0.8137975
v 0.2500005 0.5 -0.9254165
v 0.08682463 0.5 -0.9848077
v -0.08682355 0.5 -0.9848078
v -0.2499995 0.5 -0.9254167
v -0.3830218 0.5 -0.8137978
v 3.278255E-07 -0.5 -0.4924039
v 3.278255E-07 0.5 -0.4924039
v -2.469615 -0.5 -0.1451083
v -2.469615 0.5 -0.1451083
v -2.439462 -0.5 0.02590197
v -2.439462 0.5 0.02590197
v -2.931866 -0.5 0.112726
v -2.962019 -0.5 -0.05828425
v -2.931866 0.5 0.112726
v -2.962019 0.5 -0.05828425
v -2.992173 -0.5 -0.229294
v -2.992173 0.5 -0.229294
v -2.499769 -0.5 -0.3161183
v -2.499769 0.5 -0.3161183
v -2.115073 -0.5 -1.813798
v -2.115073 0.5 -1.813798
v -2.201897 -0.5 -1.663415
v -2.201897 0.5 -1.663415
v -2.634909 -0.5 -1.913415
v -2.548085 -0.5 -2.063798
v -2.634909 0.5 -1.913415
v -2.548085 0.5 -2.063798
v -2.461261 -0.5 -2.214182
v -2.461261 0.5 -2.214182
v -2.028248 -0.5 -1.964182
v -2.028248 0.5 -1.964182
v -0.7708628 -0.5 -2.864193
v -0.7708628 0.5 -2.864193
v -0.9340392 -0.5 -2.804802
v -0.9340392 0.5 -2.804802
v -1.105049 -0.5 -3.274648
v -0.9418728 -0.5 -3.33404
v -1.105049 0.5 -3.274648
v -0.9418728 0.5 -3.33404
v -0.7786968 -0.5 -3.393431
v -0.7786968 0.5 -3.393431
v -0.6076871 -0.5 -2.923584
v -0.6076871 0.5 -2.923584
v 0.9340414 -0.5 -2.804802
v 0.9340414 0.5 -2.804802
v 0.7708653 -0.5 -2.864193
v 0.7708653 0.5 -2.864193
v 0.9418755 -0.5 -3.334039
v 1.105051 -0.5 -3.274648
v 0.9418755 0.5 -3.334039
v 1.105051 0.5 -3.274648
v 1.268227 -0.5 -3.215257
v 1.268227 0.5 -3.215257
v 1.097217 -0.5 -2.745411
v 1.097217 0.5 -2.745411
v 2.201898 -0.5 -1.663414
v 2.201898 0.5 -1.663414
v 2.115074 -0.5 -1.813797
v 2.115074 0.5 -1.813797
v 2.548086 -0.5 -2.063797
v 2.634911 -0.5 -1.913413
v 2.548086 0.5 -2.063797
v 2.634911 0.5 -1.913413
v 2.721735 -0.5 -1.76303
v 2.721735 0.5 -1.76303
v 2.288722 -0.5 -1.51303
v 2.288722 0.5 -1.51303
v 2.439462 -0.5 0.02590358
v 2.439462 0.5 0.02590358
v 2.469616 -0.5 -0.1451067
v 2.469616 0.5 -0.1451067
v 2.96202 -0.5 -0.05828252
v 2.931866 -0.5 0.1127276
v 2.96202 0.5 -0.05828252
v 2.931866 0.5 0.1127276
v 2.901712 -0.5 0.2837378
v 2.901712 0.5 0.2837378
v 2.409308 -0.5 0.1969137
v 2.409308 0.5 0.1969137
v 1.535576 -0.5 1.472698
v 1.535576 0.5 1.472698
v 1.668598 -0.5 1.361079
v 1.668598 0.5 1.361079
v 1.989991 -0.5 1.744102
v 1.856969 -0.5 1.85572
v 1.989991 0.5 1.744102
v 1.856969 0.5 1.85572
v 1.723947 -0.5 1.967339
v 1.723947 0.5 1.967339
v 1.402553 -0.5 1.584317
v 1.402553 0.5 1.584317

vt -1.5 0
vt 0.5 0
vt -1.5 1
vt 0.5 1
vt 0.5000001 0
vt 2.5 0
vt 0.5000001 1
vt 2.5 1
vt 0.5868241 2.5
vt 0.4131759 2.5
vt 0.5868242 0.5000001
vt 0.413176 0.5
vt 0.4131759 0
vt 0.5868241 0
vt 0.4131759 1
vt 0.5868241 1
vt 3.75 0
vt 4.25 0
vt 3.75 1
vt 4.25 1
vt 0.5868241 1.75
vt 0.4131759 1.75
vt 0.5868241 1.25
vt 0.4131759 1.25
vt 0.7604723 0
vt 0.9341205 0
vt 0.7604723 1
vt 0.9341205 1
vt -3.25 0
vt -2.75 0
vt -3.25 1
vt -2.75 1
vt 0.06587952 0
vt 0.2395277 0
vt 0.06587952 1
vt 0.2395277 1
vt 0.2395277 1.75
vt 0.06587952 1.75
vt 0.2395277 1.25
vt 0.06587952 1.25
vt 0.7604723 1.25
vt 0.9341205 1.25
vt 0.7604723 1.75
vt 0.9341205 1.75
vt 0.08682418 -0.5
vt 0.08682418 -0.3333333
vt -0.08682406 -0.5
vt -0.086824 -0.3333333
vt 0.08682406 -0.5
vt -0.086824 -0.5
vt 0.08682409 -0.1666667
vt -0.08682406 -0.1666667
vt 0.08682409 0
vt -0.08682406 0
vt 0.08682418 0.1666667
vt -0.086824 0.1666667
vt 0.08682418 0.3333334
vt -0.086824 0.3333334
vt 0.08682409 0.5
vt -0.08682406 0.5
vt 0.08682397 0.5
vt -0.08682409 0.5
vt 0.4667444 0.05760032
vt -0.03325558 0.05760032
vt 0.4365907 0.2286104
vt -0.4667444 0.05760032
vt 0.03325558 0.05760032
vt -0.4365907 0.2286104
vt 0.4582967 0.2365106
vt -0.01154956 0.06550062
vt 0.3714727 0.3868944
vt -0.4582967 0.2365106
vt 0.01154955 0.06550062
vt -0.3714727 0.3868944
vt 0.4379838 0.3117026
vt 0.05496156 -0.009691119
vt 0.3049615 0.4233216
vt -0.4379838 0.3117026
vt -0.05496156 -0.009691119
vt -0.3049615 0.4233216
vt 0.2983323 0.405108
vt 0.04833239 -0.02790469
vt 0.1351565 0.4644992
vt -0.2983323 0.405108
vt -0.04833239 -0.02790469
vt -0.1351565 0.4644992
vt 0.07928571 0.4496514
vt -0.007538393 -0.0427525
vt -0.09436246 0.4496514
vt -0.07928571 0.4496514
vt 0.007538363 -0.0427525
vt 0.09436247 0.4496514
vt -0.1493241 0.4696557
vt -0.0625 -0.02274814
vt -0.3124999 0.4102646
vt 0.1493241 0.4696557
vt 0.0625 -0.02274814
vt 0.3124999 0.4102646
vt -0.2832555 0.4609174
vt -0.03325564 0.02790457
vt -0.4162777 0.3492985
vt 0.2832555 0.4609174
vt 0.03325564 0.02790463
vt 0.4162777 0.3492984
vt -0.3639342 0.3738376
vt 0.01908794 0.05244374
vt -0.4507584 0.2234538
vt 0.3639342 0.3738376
vt -0.01908794 0.05244374
vt 0.4507584 0.2234538
vt -0.4339727 0.2137626
vt 0.03587364 0.04275256
vt -0.4641263 0.0427525
vt 0.4339727 0.2137626
vt -0.03587364 0.04275253
vt 0.4641263 0.0427525
vt -0.4667444 -0.05760024
vt 0.03325555 -0.05760027
vt -0.4365908 -0.2286103
vt 0.4667444 -0.05760027
vt -0.03325555 -0.05760027
vt 0.4365908 -0.2286103
vt -0.4582967 -0.2365106
vt 0.01154959 -0.06550059
vt -0.3714727 -0.3868943
vt 0.4582967 -0.2365106
vt -0.01154959 -0.06550059
vt 0.3714727 -0.3868944
vt -0.4379838 -0.3117026
vt -0.05496147 0.009691089
vt -0.3049616 -0.4233215
vt 0.4379838 -0.3117027
vt 0.0549615 0.009691089
vt 0.3049616 -0.4233215
vt -0.2983325 -0.405108
vt -0.0483324 0.02790472
vt -0.1351565 -0.4644991
vt 0.2983325 -0.405108
vt 0.0483324 0.02790472
vt 0.1351565 -0.4644991
vt -0.07928571 -0.4496513
vt 0.007538408 0.0427525
vt 0.09436245 -0.4496514
vt 0.07928573 -0.4496514
vt -0.007538423 0.04275253
vt -0.09436247 -0.4496514
vt 0.149324 -0.4696557
vt 0.06249997 0.02274814
vt 0.3124999 -0.4102647
vt -0.149324 -0.4696557
vt -0.06249996 0.0227482
vt -0.3125 -0.4102646
vt 0.2832557 -0.4609174
vt 0.03325555 -0.02790469
vt 0.4162779 -0.3492985
vt -0.2832557 -0.4609175
vt -0.03325559 -0.02790463
vt -0.4162779 -0.3492985
vt 0.3639344 -0.3738376
vt -0.01908794 -0.0524438
vt 0.4507583 -0.2234539
vt -0.3639342 -0.3738376
vt 0.01908794 -0.0524438
vt -0.4507584 -0.2234539
vt 0.4339726 -0.2137626
vt -0.03587362 -0.0427525
vt 0.4641264 -0.04275244
vt -0.4339726 -0.2137626
vt 0.03587362 -0.0427525
vt -0.4641264 -0.04275244
vt 0.4131759 0.4999999
vt 0.2395277 1.75
vt 0.2395275 1.25
vt -1.5 0
vt -1.5 1
vt 0.5868238 0.4999998
vt 0.5868243 1.749999
vt 0.586824 1.25
vt 0.4131759 1.75
vt 0.0658794 1.75
vt 0.06587964 1.25
vt 0.7604726 1.25
vt 0.7604722 1.75
vt 0.5868244 2.5
vt 0.4131761 1.25
vt 0.9341202 1.25
vt 0.4131758 2.5
vt 3.75 0
vt 3.75 1
vt 0.9341204 1.75

vn 1 0 4.470348E-08
vn -1 0 -3.352761E-08
vn 0 -1 0
vn 0 1 0
vn 0 0 -1
vn 0 0 1
vn 0.9848076 0 0.1736489
vn 0.8660257 2.20308E-07 -0.4999996
vn 0.6427878 0 -0.7660443
vn 0.3420208 0 -0.9396924
vn -0.3420196 3.323534E-07 -0.9396929
vn -0.8660251 1.548573E-07 -0.5000005
vn -0.9848078 0 0.1736479
vn -0.6427879 1.590193E-07 0.7660442
vn 0.6427875 1.590195E-07 0.7660446
vn 0.1736479 0 0.9848078
vn -0.1736479 0 -0.9848078
vn 0.984808 0 -0.173647
vn -0.5000002 0 0.8660253
vn 0.5000003 0 -0.8660253
vn 0.8660256 0 0.4999997
vn 0.8660251 0 0.5000004
vn -0.9396929 0 0.3420196
vn 0.9396927 0 -0.3420198
vn 0.3420217 0 0.9396921
vn -0.9396926 0 -0.3420204
vn 0.9396926 0 0.3420203
vn -0.3420208 0 0.9396924
vn -0.4999999 0 -0.8660255
vn 0.4999999 0 0.8660255
vn -0.866025 0 0.5000007
vn -0.5 0 -0.8660254
vn 0.8660251 0 -0.5000004
vn 0.1736486 0 -0.9848077
vn -0.1736485 0 0.9848077
vn -0.9848075 0 -0.1736498
vn 0.7660444 0 -0.6427877
vn -0.7660445 0 0.6427876
vn -0.6427876 0 -0.7660445

usemtl ProBuilderDefault
f 17/65/4 139/64/4 49/63/4
f 19/71/4 139/70/4 17/69/4
f 21/77/4 139/76/4 19/75/4
f 23/83/4 139/82/4 21/81/4
f 25/89/4 139/88/4 23/87/4
f 2/95/4 139/94/4 25/93/4
f 5/101/4 139/100/4 2/99/4
f 29/107/4 139/106/4 5/105/4
f 31/113/4 139/112/4 29/111/4
f 33/119/4 139/118/4 31/117/4
f 35/125/4 139/124/4 33/123/4
f 37/131/4 139/130/4 35/129/4
f 39/137/4 139/136/4 37/135/4
f 41/143/4 139/142/4 39/141/4
f 43/149/4 139/148/4 41/147/4
f 45/155/4 139/154/4 43/153/4
f 47/161/4 139/160/4 45/159/4
f 49/167/4 139/166/4 47/165/4
f 138/66/3 140/67/3 123/68/3
f 123/72/3 140/73/3 124/74/3
f 124/78/3 140/79/3 125/80/3
f 125/84/3 140/85/3 126/86/3
f 126/90/3 140/91/3 127/92/3
f 127/96/3 140/97/3 4/98/3
f 4/102/3 140/103/3 7/104/3
f 7/108/3 140/109/3 128/110/3
f 128/114/3 140/115/3 129/116/3
f 129/120/3 140/121/3 130/122/3
f 130/126/3 140/127/3 131/128/3
f 131/132/3 140/133/3 132/134/3
f 132/138/3 140/139/3 133/140/3
f 133/144/3 140/145/3 134/146/3
f 134/150/3 140/151/3 135/152/3
f 135/156/3 140/157/3 136/158/3
f 136/162/3 140/163/3 137/164/3
f 137/168/3 140/169/3 138/170/3
f 2/2/1 4/4/1 3/3/1
f 3/3/1 1/1/1 2/2/1
f 6/6/2 8/8/2 7/7/2
f 7/7/2 5/5/2 6/6/2
f 3/10/3 4/12/3 7/11/3
f 7/11/3 8/9/3 3/10/3
f 2/11/4 1/9/4 6/10/4
f 6/10/4 5/12/4 2/11/4
f 10/14/5 12/16/5 11/15/5
f 11/15/5 9/13/5 10/14/5
f 9/18/2 11/20/2 8/19/2
f 8/19/2 6/17/2 9/18/2
f 12/22/3 3/24/3 8/23/3
f 8/23/3 11/21/3 12/22/3
f 1/23/4 10/21/4 9/22/4
f 9/22/4 6/24/4 1/23/4
f 13/26/5 14/28/5 12/27/5
f 12/27/5 10/25/5 13/26/5
f 15/30/1 16/32/1 14/31/1
f 14/31/1 13/29/1 15/30/1
f 1/34/6 3/36/6 16/35/6
f 16/35/6 15/33/6 1/34/6
f 14/38/3 16/40/3 3/39/3
f 3/39/3 12/37/3 14/38/3
f 15/42/4 13/44/4 10/43/4
f 10/43/4 1/41/4 15/42/4
f 18/46/7 20/48/7 19/47/7
f 19/47/7 17/45/7 18/46/7
f 22/46/8 24/48/8 23/50/8
f 23/50/8 21/49/8 22/46/8
f 24/46/9 26/48/9 25/50/9
f 25/50/9 23/49/9 24/46/9
f 26/46/10 27/48/10 2/50/10
f 2/50/10 25/49/10 26/46/10
f 28/46/11 30/48/11 29/50/11
f 29/50/11 5/49/11 28/46/11
f 32/46/12 34/48/12 33/50/12
f 33/50/12 31/49/12 32/46/12
f 36/46/13 38/48/13 37/50/13
f 37/50/13 35/49/13 36/46/13
f 40/46/14 42/48/14 41/50/14
f 41/50/14 39/49/14 40/46/14
f 44/46/6 46/48/6 45/50/6
f 45/50/6 43/49/6 44/46/6
f 48/46/15 50/48/15 49/50/15
f 49/50/15 47/49/15 48/46/15
f 51/51/7 52/52/7 20/48/7
f 20/48/7 18/46/7 51/51/7
f 53/51/8 54/52/8 24/48/8
f 24/48/8 22/46/8 53/51/8
f 54/51/9 55/52/9 26/48/9
f 26/48/9 24/46/9 54/51/9
f 55/51/10 56/52/10 27/48/10
f 27/48/10 26/46/10 55/51/10
f 57/51/11 58/52/11 30/48/11
f 30/48/11 28/46/11 57/51/11
f 59/51/12 60/52/12 34/48/12
f 34/48/12 32/46/12 59/51/12
f 61/51/13 62/52/13 38/48/13
f 38/48/13 36/46/13 61/51/13
f 63/51/14 64/52/14 42/48/14
f 42/48/14 40/46/14 63/51/14
f 65/51/6 66/52/6 46/48/6
f 46/48/6 44/46/6 65/51/6
f 67/51/15 68/52/15 50/48/15
f 50/48/15 48/46/15 67/51/15
f 69/53/7 70/54/7 52/52/7
f 52/52/7 51/51/7 69/53/7
f 71/53/8 72/54/8 54/52/8
f 54/52/8 53/51/8 71/53/8
f 72/53/9 73/54/9 55/52/9
f 55/52/9 54/51/9 72/53/9
f 73/53/10 74/54/10 56/52/10
f 56/52/10 55/51/10 73/53/10
f 75/53/11 76/54/11 58/52/11
f 58/52/11 57/51/11 75/53/11
f 77/53/12 78/54/12 60/52/12
f 60/52/12 59/51/12 77/53/12
f 79/53/13 80/54/13 62/52/13
f 62/52/13 61/51/13 79/53/13
f 81/53/14 82/54/14 64/52/14
f 64/52/14 63/51/14 81/53/14
f 83/53/6 84/54/6 66/52/6
f 66/52/6 65/51/6 83/53/6
f 85/53/15 86/54/15 68/52/15
f 68/52/15 67/51/15 85/53/15
f 87/55/7 88/56/7 70/54/7
f 70/54/7 69/53/7 87/55/7
f 89/55/8 90/56/8 72/54/8
f 72/54/8 71/53/8 89/55/8
f 90/55/9 91/56/9 73/54/9
f 73/54/9 72/53/9 90/55/9
f 91/55/10 92/56/10 74/54/10
f 74/54/10 73/53/10 91/55/10
f 93/55/11 94/56/11 76/54/11
f 76/54/11 75/53/11 93/55/11
f 95/55/12 96/56/12 78/54/12
f 78/54/12 77/53/12 95/55/12
f 97/55/13 98/56/13 80/54/13
f 80/54/13 79/53/13 97/55/13
f 99/55/14 100/56/14 82/54/14
f 82/54/14 81/53/14 99/55/14
f 101/55/6 102/56/6 84/54/6
f 84/54/6 83/53/6 101/55/6
f 103/55/15 104/56/15 86/54/15
f 86/54/15 85/53/15 103/55/15
f 105/57/7 106/58/7 88/56/7
f 88/56/7 87/55/7 105/57/7
f 107/57/8 108/58/8 90/56/8
f 90/56/8 89/55/8 107/57/8
f 108/57/9 109/58/9 91/56/9
f 91/56/9 90/55/9 108/57/9
f 109/57/10 110/58/10 92/56/10
f 92/56/10 91/55/10 109/57/10
f 111/57/11 112/58/11 94/56/11
f 94/56/11 93/55/11 111/57/11
f 113/57/12 114/58/12 96/56/12
f 96/56/12 95/55/12 113/57/12
f 115/57/13 116/58/13 98/56/13
f 98/56/13 97/55/13 115/57/13
f 117/57/14 118/58/14 100/56/14
f 100/56/14 99/55/14 117/57/14
f 119/57/6 120/58/6 102/56/6
f 102/56/6 101/55/6 119/57/6
f 121/57/15 122/58/15 104/56/15
f 104/56/15 103/55/15 121/57/15
f 123/59/7 124/60/7 106/58/7
f 106/58/7 105/57/7 123/59/7
f 125/61/8 126/62/8 108/58/8
f 108/58/8 107/57/8 125/61/8
f 126/61/9 127/62/9 109/58/9
f 109/58/9 108/57/9 126/61/9
f 127/61/10 4/62/10 110/58/10
f 110/58/10 109/57/10 127/61/10
f 7/61/11 128/62/11 112/58/11
f 112/58/11 111/57/11 7/61/11
f 129/61/12 130/62/12 114/58/12
f 114/58/12 113/57/12 129/61/12
f 131/61/13 132/62/13 116/58/13
f 116/58/13 115/57/13 131/61/13
f 133/61/14 134/62/14 118/58/14
f 118/58/14 117/57/14 133/61/14
f 135/61/6 136/62/6 120/58/6
f 120/58/6 119/57/6 135/61/6
f 137/61/15 138/62/15 122/58/15
f 122/58/15 121/57/15 137/61/15
f 19/5/16 124/7/16 142/3/16
f 142/3/16 141/1/16 19/5/16
f 143/6/17 144/8/17 125/7/17
f 125/7/17 21/5/17 143/6/17
f 142/10/3 124/171/3 125/11/3
f 125/11/3 144/9/3 142/10/3
f 19/11/4 141/9/4 143/10/4
f 143/10/4 21/12/4 19/11/4
f 146/14/18 148/16/18 147/15/18
f 147/15/18 145/13/18 146/14/18
f 145/18/17 147/20/17 144/19/17
f 144/19/17 143/17/17 145/18/17
f 148/22/3 142/24/3 144/23/3
f 144/23/3 147/21/3 148/22/3
f 141/23/4 146/21/4 145/22/4
f 145/22/4 143/24/4 141/23/4
f 149/26/18 150/28/18 148/27/18
f 148/27/18 146/25/18 149/26/18
f 151/30/16 152/32/16 150/31/16
f 150/31/16 149/29/16 151/30/16
f 141/34/13 142/36/13 152/35/13
f 152/35/13 151/33/13 141/34/13
f 150/38/3 152/40/3 142/173/3
f 142/173/3 148/172/3 150/38/3
f 151/42/4 149/44/4 146/43/4
f 146/43/4 141/41/4 151/42/4
f 49/2/19 138/4/19 154/175/19
f 154/175/19 153/174/19 49/2/19
f 155/6/20 156/8/20 123/4/20
f 123/4/20 17/2/20 155/6/20
f 154/10/3 138/12/3 123/11/3
f 123/11/3 156/9/3 154/10/3
f 49/176/4 153/9/4 155/10/4
f 155/10/4 17/12/4 49/176/4
f 158/14/21 160/16/21 159/15/21
f 159/15/21 157/13/21 158/14/21
f 157/18/20 159/20/20 156/19/20
f 156/19/20 155/17/20 157/18/20
f 160/22/3 154/24/3 156/23/3
f 156/23/3 159/21/3 160/22/3
f 153/23/4 158/21/4 157/22/4
f 157/22/4 155/24/4 153/23/4
f 161/26/22 162/28/22 160/27/22
f 160/27/22 158/25/22 161/26/22
f 163/30/19 164/32/19 162/31/19
f 162/31/19 161/29/19 163/30/19
f 153/34/12 154/36/12 164/35/12
f 164/35/12 163/33/12 153/34/12
f 162/38/3 164/40/3 154/39/3
f 154/39/3 160/172/3 162/38/3
f 163/42/4 161/44/4 158/43/4
f 158/43/4 153/41/4 163/42/4
f 45/5/23 136/7/23 166/3/23
f 166/3/23 165/1/23 45/5/23
f 167/6/24 168/8/24 137/7/24
f 137/7/24 47/5/24 167/6/24
f 166/10/3 136/12/3 137/11/3
f 137/11/3 168/9/3 166/10/3
f 45/11/4 165/9/4 167/10/4
f 167/10/4 47/12/4 45/11/4
f 170/14/25 172/16/25 171/15/25
f 171/15/25 169/13/25 170/14/25
f 169/18/24 171/20/24 168/19/24
f 168/19/24 167/17/24 169/18/24
f 172/22/3 166/24/3 168/23/3
f 168/23/3 171/177/3 172/22/3
f 165/178/4 170/177/4 169/179/4
f 169/179/4 167/24/4 165/178/4
f 173/26/25 174/28/25 172/27/25
f 172/27/25 170/25/25 173/26/25
f 175/30/23 176/32/23 174/31/23
f 174/31/23 173/29/23 175/30/23
f 165/34/11 166/36/11 176/35/11
f 176/35/11 175/33/11 165/34/11
f 174/180/3 176/181/3 166/173/3
f 166/173/3 172/37/3 174/180/3
f 175/42/4 173/44/4 170/183/4
f 170/183/4 165/182/4 175/42/4
f 41/5/26 134/7/26 178/3/26
f 178/3/26 177/1/26 41/5/26
f 179/6/27 180/8/27 135/7/27
f 135/7/27 43/5/27 179/6/27
f 178/10/3 134/12/3 135/11/3
f 135/11/3 180/184/3 178/10/3
f 41/176/4 177/184/4 179/10/4
f 179/10/4 43/12/4 41/176/4
f 182/14/28 184/16/28 183/15/28
f 183/15/28 181/13/28 182/14/28
f 181/18/27 183/20/27 180/19/27
f 180/19/27 179/17/27 181/18/27
f 184/179/3 178/185/3 180/23/3
f 180/23/3 183/21/3 184/179/3
f 177/23/4 182/21/4 181/179/4
f 181/179/4 179/185/4 177/23/4
f 185/26/28 186/28/28 184/27/28
f 184/27/28 182/25/28 185/26/28
f 187/30/26 188/32/26 186/31/26
f 186/31/26 185/29/26 187/30/26
f 177/34/10 178/36/10 188/35/10
f 188/35/10 187/33/10 177/34/10
f 186/38/3 188/40/3 178/39/3
f 178/39/3 184/37/3 186/38/3
f 187/186/4 185/44/4 182/43/4
f 182/43/4 177/41/4 187/186/4
f 37/2/29 132/4/29 190/3/29
f 190/3/29 189/1/29 37/2/29
f 191/6/30 192/8/30 133/7/30
f 133/7/30 39/5/30 191/6/30
f 190/10/3 132/12/3 133/11/3
f 133/11/3 192/9/3 190/10/3
f 37/11/4 189/9/4 191/10/4
f 191/10/4 39/171/4 37/11/4
f 194/14/31 196/16/31 195/15/31
f 195/15/31 193/13/31 194/14/31
f 193/18/30 195/20/30 192/19/30
f 192/19/30 191/17/30 193/18/30
f 196/22/3 190/24/3 192/23/3
f 192/23/3 195/177/3 196/22/3
f 189/178/4 194/177/4 193/179/4
f 193/179/4 191/24/4 189/178/4
f 197/26/31 198/28/31 196/27/31
f 196/27/31 194/25/31 197/26/31
f 199/30/32 200/32/32 198/31/32
f 198/31/32 197/29/32 199/30/32
f 189/34/33 190/36/33 200/35/33
f 200/35/33 199/33/33 189/34/33
f 198/38/3 200/40/3 190/39/3
f 190/39/3 196/37/3 198/38/3
f 199/186/4 197/44/4 194/43/4
f 194/43/4 189/182/4 199/186/4
f 33/2/34 130/4/34 202/3/34
f 202/3/34 201/1/34 33/2/34
f 203/6/35 204/8/35 131/7/35
f 131/7/35 35/5/35 203/6/35
f 202/187/3 130/171/3 131/11/3
f 131/11/3 204/9/3 202/187/3
f 33/11/4 201/9/4 203/187/4
f 203/187/4 35/171/4 33/11/4
f 206/14/36 208/16/36 207/15/36
f 207/15/36 205/13/36 206/14/36
f 205/18/35 207/20/35 204/19/35
f 204/19/35 203/17/35 205/18/35
f 208/22/3 202/24/3 204/23/3
f 204/23/3 207/21/3 208/22/3
f 201/23/4 206/21/4 205/22/4
f 205/22/4 203/24/4 201/23/4
f 209/26/36 210/28/36 208/27/36
f 208/27/36 206/25/36 209/26/36
f 211/30/34 212/32/34 210/31/34
f 210/31/34 209/29/34 211/30/34
f 201/34/7 202/36/7 212/35/7
f 212/35/7 211/33/7 201/34/7
f 210/180/3 212/181/3 202/39/3
f 202/39/3 208/37/3 210/180/3
f 211/186/4 209/44/4 206/43/4
f 206/43/4 201/182/4 211/186/4
f 29/2/37 128/4/37 214/3/37
f 214/3/37 213/1/37 29/2/37
f 215/6/38 216/8/38 129/7/38
f 129/7/38 31/5/38 215/6/38
f 214/187/3 128/12/3 129/11/3
f 129/11/3 216/9/3 214/187/3
f 29/11/4 213/9/4 215/10/4
f 215/10/4 31/171/4 29/11/4
f 218/14/39 220/16/39 219/15/39
f 219/15/39 217/13/39 218/14/39
f 217/18/38 219/20/38 216/189/38
f 216/189/38 215/188/38 217/18/38
f 220/22/3 214/185/3 216/23/3
f 216/23/3 219/21/3 220/22/3
f 213/178/4 218/21/4 217/22/4
f 217/22/4 215/24/4 213/178/4
f 221/26/39 222/28/39 220/27/39
f 220/27/39 218/25/39 221/26/39
f 223/30/37 224/32/37 222/31/37
f 222/31/37 221/29/37 223/30/37
f 213/34/15 214/36/15 224/35/15
f 224/35/15 223/33/15 213/34/15
f 222/38/3 224/181/3 214/173/3
f 214/173/3 220/172/3 222/38/3
f 223/186/4 221/190/4 218/43/4
f 218/43/4 213/41/4 223/186/4

